<svg width="17" height="17" viewBox="0 0 17 17" fill="none" xmlns="http://www.w3.org/2000/svg">
<path d="M14.521 3.26479C14.1332 2.79558 13.6462 2.41823 13.095 2.15991C12.5439 1.90159 11.9422 1.76873 11.3335 1.77091C10.292 1.73937 9.27804 2.10821 8.5002 2.80154C7.72236 2.10821 6.70838 1.73937 5.66687 1.77091C5.05816 1.76873 4.45654 1.90159 3.90536 2.15991C3.35418 2.41823 2.86715 2.79558 2.47937 3.26479C1.80433 4.08362 1.09812 5.56616 1.56633 7.98229C2.31362 11.8406 7.91724 15.0068 8.15383 15.1365C8.25929 15.1953 8.37804 15.2261 8.49879 15.2261C8.61953 15.2261 8.73828 15.1953 8.84374 15.1365C9.08174 15.004 14.6854 11.8377 15.4312 7.98229C15.9023 5.56616 15.1961 4.08362 14.521 3.26479ZM14.0436 7.71312C13.5152 10.4409 9.67462 12.9782 8.5002 13.6992C6.84553 12.7005 3.44128 10.193 2.96033 7.71312C2.59695 5.83887 3.0942 4.75016 3.57587 4.16649C3.83059 3.85916 4.15017 3.612 4.51169 3.44275C4.8732 3.27351 5.2677 3.18636 5.66687 3.18758C6.09321 3.1556 6.52056 3.23465 6.90725 3.41701C7.29395 3.59937 7.62679 3.87882 7.87333 4.22812C7.93412 4.33999 8.02381 4.43351 8.13304 4.49893C8.24226 4.56435 8.36704 4.59928 8.49436 4.60007C8.62168 4.60087 8.74688 4.5675 8.85692 4.50345C8.96696 4.4394 9.05781 4.34701 9.11999 4.23591C9.36605 3.88389 9.6996 3.60208 10.0878 3.41825C10.4759 3.23441 10.9053 3.15491 11.3335 3.18758C11.7335 3.18563 12.129 3.27242 12.4914 3.44169C12.8539 3.61096 13.1742 3.85851 13.4295 4.16649C13.9097 4.75016 14.407 5.83887 14.0436 7.71312Z" fill="#39C0D4"/>
</svg>
