<svg width="60" height="60" viewBox="0 0 60 60" fill="none" xmlns="http://www.w3.org/2000/svg">
<g filter="url(#filter0_d_1433_593)">
<path d="M58 30C58 45.464 45.464 58 30 58C14.536 58 2 45.464 2 30C2 14.536 14.536 2 30 2C45.464 2 58 14.536 58 30Z" fill="url(#paint0_linear_1433_593)"/>
</g>
<path d="M22.0001 21L22.0001 39C22 39.1705 22.0435 39.3381 22.1264 39.4871C22.2094 39.636 22.329 39.7612 22.474 39.8509C22.619 39.9406 22.7845 39.9917 22.9548 39.9994C23.1251 40.0071 23.2946 39.9712 23.4471 39.895L41.4471 30.895C41.602 30.8026 41.7304 30.6715 41.8195 30.5146C41.9086 30.3577 41.9554 30.1804 41.9554 30C41.9554 29.8195 41.9086 29.6422 41.8195 29.4853C41.7304 29.3284 41.602 29.1974 41.4471 29.105L23.4471 20.105C23.2946 20.0288 23.1251 19.9928 22.9548 20.0005C22.7845 20.0082 22.619 20.0594 22.474 20.149C22.329 20.2387 22.2094 20.364 22.1264 20.5129C22.0435 20.6618 22 20.8295 22.0001 21ZM38.7641 30L24.0001 37.382L24.0001 22.618L38.7641 30Z" fill="white"/>
<defs>
<filter id="filter0_d_1433_593" x="0" y="0" width="60" height="60" filterUnits="userSpaceOnUse" color-interpolation-filters="sRGB">
<feFlood flood-opacity="0" result="BackgroundImageFix"/>
<feColorMatrix in="SourceAlpha" type="matrix" values="0 0 0 0 0 0 0 0 0 0 0 0 0 0 0 0 0 0 127 0" result="hardAlpha"/>
<feOffset/>
<feGaussianBlur stdDeviation="1"/>
<feComposite in2="hardAlpha" operator="out"/>
<feColorMatrix type="matrix" values="0 0 0 0 0 0 0 0 0 0.760784 0 0 0 0 0.796078 0 0 0 1 0"/>
<feBlend mode="normal" in2="BackgroundImageFix" result="effect1_dropShadow_1433_593"/>
<feBlend mode="normal" in="SourceGraphic" in2="effect1_dropShadow_1433_593" result="shape"/>
</filter>
<linearGradient id="paint0_linear_1433_593" x1="19" y1="-6.5" x2="19" y2="49.5" gradientUnits="userSpaceOnUse">
<stop stop-color="#A6F3FF"/>
<stop offset="1" stop-color="#00C2CB"/>
</linearGradient>
</defs>
</svg>
