<svg width="18" height="17" viewBox="0 0 18 17" fill="none" xmlns="http://www.w3.org/2000/svg">
<g clip-path="url(#clip0_1426_477)">
<path d="M14.2503 6.37492C14.8436 6.37492 15.4236 6.20875 15.917 5.89742C16.4103 5.58609 16.7949 5.14358 17.0219 4.62586C17.249 4.10813 17.3084 3.53844 17.1926 2.98883C17.0769 2.43922 16.7912 1.93437 16.3716 1.53812C15.952 1.14187 15.4175 0.87202 14.8355 0.762695C14.2536 0.65337 13.6504 0.70948 13.1022 0.923928C12.554 1.13838 12.0855 1.50153 11.7559 1.96747C11.4262 2.43341 11.2503 2.98121 11.2503 3.54159C11.2543 3.8088 11.299 4.07407 11.383 4.32925L6.04602 6.69792C5.65303 6.24757 5.12237 5.92282 4.52658 5.76805C3.93079 5.61327 3.29893 5.63603 2.71735 5.83321C2.13577 6.03038 1.63284 6.39236 1.2773 6.86967C0.921765 7.34698 0.730957 7.91633 0.730957 8.49992C0.730957 9.08351 0.921765 9.65286 1.2773 10.1302C1.63284 10.6075 2.13577 10.9695 2.71735 11.1666C3.29893 11.3638 3.93079 11.3866 4.52658 11.2318C5.12237 11.077 5.65303 10.7523 6.04602 10.3019L11.383 12.6706C11.299 12.9258 11.2543 13.191 11.2503 13.4583C11.2486 14.1149 11.4878 14.7517 11.9272 15.2606C12.3666 15.7694 12.9791 16.1187 13.6605 16.2491C14.3419 16.3795 15.0501 16.2829 15.6646 15.9758C16.2791 15.6686 16.7619 15.1699 17.0309 14.5644C17.3 13.959 17.3386 13.2842 17.1403 12.6549C16.9419 12.0256 16.5188 11.4806 15.943 11.1127C15.3672 10.7447 14.6742 10.5766 13.9819 10.6368C13.2896 10.697 12.6407 10.9819 12.1458 11.443L6.69402 9.02409C6.76903 8.67847 6.76903 8.32208 6.69402 7.97646L12.1458 5.55679C12.7058 6.08068 13.4621 6.37469 14.2503 6.37492ZM14.2503 2.12492C14.5469 2.12492 14.837 2.20801 15.0836 2.36367C15.3303 2.51934 15.5226 2.74059 15.6361 2.99945C15.7496 3.25831 15.7793 3.54316 15.7215 3.81796C15.6636 4.09277 15.5207 4.3452 15.3109 4.54332C15.1012 4.74145 14.8339 4.87637 14.5429 4.93103C14.2519 4.98569 13.9503 4.95764 13.6762 4.85042C13.4022 4.74319 13.1679 4.56161 13.0031 4.32864C12.8382 4.09567 12.7503 3.82178 12.7503 3.54159C12.7503 3.16586 12.9083 2.80553 13.1896 2.53985C13.4709 2.27418 13.8525 2.12492 14.2503 2.12492ZM3.75027 9.91659C3.4536 9.91659 3.16359 9.8335 2.91692 9.67783C2.67025 9.52217 2.47799 9.30092 2.36445 9.04205C2.25092 8.78319 2.22122 8.49835 2.2791 8.22354C2.33697 7.94874 2.47984 7.69631 2.68961 7.49819C2.89939 7.30006 3.16667 7.16514 3.45764 7.11047C3.74861 7.05581 4.05021 7.08387 4.3243 7.19109C4.59839 7.29831 4.83266 7.47989 4.99748 7.71286C5.1623 7.94583 5.25027 8.21973 5.25027 8.49992C5.25027 8.87564 5.09224 9.23598 4.81093 9.50165C4.52963 9.76733 4.1481 9.91659 3.75027 9.91659ZM14.2503 12.0416C14.5469 12.0416 14.837 12.1247 15.0836 12.2803C15.3303 12.436 15.5226 12.6573 15.6361 12.9161C15.7496 13.175 15.7793 13.4598 15.7215 13.7346C15.6636 14.0094 15.5207 14.2619 15.3109 14.46C15.1012 14.6581 14.8339 14.793 14.5429 14.8477C14.2519 14.9024 13.9503 14.8743 13.6762 14.7671C13.4022 14.6599 13.1679 14.4783 13.0031 14.2453C12.8382 14.0123 12.7503 13.7384 12.7503 13.4583C12.7503 13.0825 12.9083 12.7222 13.1896 12.4565C13.4709 12.1908 13.8525 12.0416 14.2503 12.0416Z" fill="white"/>
</g>
<defs>
<clipPath id="clip0_1426_477">
<rect width="18" height="17" fill="white" transform="translate(0.000244141)"/>
</clipPath>
</defs>
</svg>
