<svg width="60" height="60" viewBox="0 0 60 60" fill="none" xmlns="http://www.w3.org/2000/svg">
<g filter="url(#filter0_d_1446_513)">
<path d="M58 30C58 45.464 45.464 58 30 58C14.536 58 2 45.464 2 30C2 14.536 14.536 2 30 2C45.464 2 58 14.536 58 30Z" fill="url(#paint0_linear_1446_513)"/>
</g>
<path d="M21 29.5H29V21.5C29 21.2348 29.1054 20.9804 29.2929 20.7929C29.4804 20.6054 29.7348 20.5 30 20.5C30.2652 20.5 30.5196 20.6054 30.7071 20.7929C30.8946 20.9804 31 21.2348 31 21.5V29.5H39C39.2652 29.5 39.5196 29.6054 39.7071 29.7929C39.8946 29.9804 40 30.2348 40 30.5C40 30.7652 39.8946 31.0196 39.7071 31.2071C39.5196 31.3946 39.2652 31.5 39 31.5H31V39.5C31 39.7652 30.8946 40.0196 30.7071 40.2071C30.5196 40.3946 30.2652 40.5 30 40.5C29.7348 40.5 29.4804 40.3946 29.2929 40.2071C29.1054 40.0196 29 39.7652 29 39.5V31.5H21C20.7348 31.5 20.4804 31.3946 20.2929 31.2071C20.1054 31.0196 20 30.7652 20 30.5C20 30.2348 20.1054 29.9804 20.2929 29.7929C20.4804 29.6054 20.7348 29.5 21 29.5V29.5Z" fill="white"/>
<defs>
<filter id="filter0_d_1446_513" x="0" y="0" width="60" height="60" filterUnits="userSpaceOnUse" color-interpolation-filters="sRGB">
<feFlood flood-opacity="0" result="BackgroundImageFix"/>
<feColorMatrix in="SourceAlpha" type="matrix" values="0 0 0 0 0 0 0 0 0 0 0 0 0 0 0 0 0 0 127 0" result="hardAlpha"/>
<feOffset/>
<feGaussianBlur stdDeviation="1"/>
<feComposite in2="hardAlpha" operator="out"/>
<feColorMatrix type="matrix" values="0 0 0 0 0 0 0 0 0 0.760784 0 0 0 0 0.796078 0 0 0 1 0"/>
<feBlend mode="normal" in2="BackgroundImageFix" result="effect1_dropShadow_1446_513"/>
<feBlend mode="normal" in="SourceGraphic" in2="effect1_dropShadow_1446_513" result="shape"/>
</filter>
<linearGradient id="paint0_linear_1446_513" x1="19" y1="-6.5" x2="19" y2="49.5" gradientUnits="userSpaceOnUse">
<stop stop-color="#A6F3FF"/>
<stop offset="1" stop-color="#00C2CB"/>
</linearGradient>
</defs>
</svg>
