<svg width="226" height="81" viewBox="0 0 226 81" fill="none" xmlns="http://www.w3.org/2000/svg">
<g filter="url(#filter0_d_182_1283)">
<rect x="11" y="11" width="204" height="59" rx="29.5" fill="#06A0B5"/>
</g>
<path d="M79.5553 34.155V45H78.5203C78.3603 45 78.2253 44.975 78.1153 44.925C78.0103 44.87 77.9078 44.78 77.8078 44.655L72.1453 37.425C72.1753 37.755 72.1903 38.06 72.1903 38.34V45H70.4128V34.155H71.4703C71.5553 34.155 71.6278 34.16 71.6878 34.17C71.7528 34.175 71.8078 34.19 71.8528 34.215C71.9028 34.235 71.9503 34.2675 71.9953 34.3125C72.0403 34.3525 72.0903 34.4075 72.1453 34.4775L77.8303 41.7375C77.8153 41.5625 77.8028 41.39 77.7928 41.22C77.7828 41.05 77.7778 40.8925 77.7778 40.7475V34.155H79.5553ZM85.6735 37.185C86.2435 37.185 86.761 37.2775 87.226 37.4625C87.696 37.6475 88.096 37.91 88.426 38.25C88.761 38.59 89.0185 39.005 89.1985 39.495C89.3785 39.985 89.4685 40.5325 89.4685 41.1375C89.4685 41.7475 89.3785 42.2975 89.1985 42.7875C89.0185 43.2775 88.761 43.695 88.426 44.04C88.096 44.385 87.696 44.65 87.226 44.835C86.761 45.02 86.2435 45.1125 85.6735 45.1125C85.0985 45.1125 84.576 45.02 84.106 44.835C83.636 44.65 83.2335 44.385 82.8985 44.04C82.5685 43.695 82.311 43.2775 82.126 42.7875C81.946 42.2975 81.856 41.7475 81.856 41.1375C81.856 40.5325 81.946 39.985 82.126 39.495C82.311 39.005 82.5685 38.59 82.8985 38.25C83.2335 37.91 83.636 37.6475 84.106 37.4625C84.576 37.2775 85.0985 37.185 85.6735 37.185ZM85.6735 43.6875C86.3135 43.6875 86.786 43.4725 87.091 43.0425C87.401 42.6125 87.556 41.9825 87.556 41.1525C87.556 40.3225 87.401 39.69 87.091 39.255C86.786 38.82 86.3135 38.6025 85.6735 38.6025C85.0235 38.6025 84.541 38.8225 84.226 39.2625C83.916 39.6975 83.761 40.3275 83.761 41.1525C83.761 41.9775 83.916 42.6075 84.226 43.0425C84.541 43.4725 85.0235 43.6875 85.6735 43.6875ZM98.4099 37.305L95.3574 45H93.6774L90.6249 37.305H92.1549C92.2949 37.305 92.4099 37.3375 92.4999 37.4025C92.5949 37.4675 92.6574 37.55 92.6874 37.65L94.1724 41.76C94.2524 42 94.3224 42.235 94.3824 42.465C94.4424 42.695 94.4949 42.925 94.5399 43.155C94.5899 42.925 94.6449 42.695 94.7049 42.465C94.7649 42.235 94.8374 42 94.9224 41.76L96.4374 37.65C96.4724 37.55 96.5349 37.4675 96.6249 37.4025C96.7149 37.3375 96.8224 37.305 96.9474 37.305H98.4099ZM104.097 41.715C103.562 41.74 103.112 41.7875 102.747 41.8575C102.382 41.9225 102.089 42.0075 101.869 42.1125C101.649 42.2175 101.492 42.34 101.397 42.48C101.302 42.62 101.254 42.7725 101.254 42.9375C101.254 43.2625 101.349 43.495 101.539 43.635C101.734 43.775 101.987 43.845 102.297 43.845C102.677 43.845 103.004 43.7775 103.279 43.6425C103.559 43.5025 103.832 43.2925 104.097 43.0125V41.715ZM99.8518 38.3775C100.737 37.5675 101.802 37.1625 103.047 37.1625C103.497 37.1625 103.899 37.2375 104.254 37.3875C104.609 37.5325 104.909 37.7375 105.154 38.0025C105.399 38.2625 105.584 38.575 105.709 38.94C105.839 39.305 105.904 39.705 105.904 40.14V45H105.064C104.889 45 104.754 44.975 104.659 44.925C104.564 44.87 104.489 44.7625 104.434 44.6025L104.269 44.0475C104.074 44.2225 103.884 44.3775 103.699 44.5125C103.514 44.6425 103.322 44.7525 103.122 44.8425C102.922 44.9325 102.707 45 102.477 45.045C102.252 45.095 102.002 45.12 101.727 45.12C101.402 45.12 101.102 45.0775 100.827 44.9925C100.552 44.9025 100.314 44.77 100.114 44.595C99.9143 44.42 99.7593 44.2025 99.6493 43.9425C99.5393 43.6825 99.4843 43.38 99.4843 43.035C99.4843 42.84 99.5168 42.6475 99.5818 42.4575C99.6468 42.2625 99.7518 42.0775 99.8968 41.9025C100.047 41.7275 100.239 41.5625 100.474 41.4075C100.709 41.2525 100.997 41.1175 101.337 41.0025C101.682 40.8875 102.082 40.795 102.537 40.725C102.992 40.65 103.512 40.605 104.097 40.59V40.14C104.097 39.625 103.987 39.245 103.767 39C103.547 38.75 103.229 38.625 102.814 38.625C102.514 38.625 102.264 38.66 102.064 38.73C101.869 38.8 101.697 38.88 101.547 38.97C101.397 39.055 101.259 39.1325 101.134 39.2025C101.014 39.2725 100.879 39.3075 100.729 39.3075C100.599 39.3075 100.489 39.275 100.399 39.21C100.309 39.14 100.237 39.06 100.182 38.97L99.8518 38.3775ZM116.764 39.6075C117.134 39.6075 117.456 39.5625 117.731 39.4725C118.006 39.3775 118.234 39.245 118.414 39.075C118.599 38.9 118.736 38.69 118.826 38.445C118.916 38.195 118.961 37.9175 118.961 37.6125C118.961 37.3225 118.916 37.06 118.826 36.825C118.736 36.59 118.601 36.39 118.421 36.225C118.241 36.06 118.014 35.935 117.739 35.85C117.464 35.76 117.139 35.715 116.764 35.715H115.256V39.6075H116.764ZM116.764 34.155C117.489 34.155 118.116 34.24 118.646 34.41C119.176 34.58 119.614 34.8175 119.959 35.1225C120.304 35.4275 120.559 35.7925 120.724 36.2175C120.894 36.6425 120.979 37.1075 120.979 37.6125C120.979 38.1375 120.891 38.62 120.716 39.06C120.541 39.495 120.279 39.87 119.929 40.185C119.579 40.5 119.139 40.745 118.609 40.92C118.084 41.095 117.469 41.1825 116.764 41.1825H115.256V45H113.239V34.155H116.764ZM124.904 33.855V45H123.052V33.855H124.904ZM131.64 41.715C131.105 41.74 130.655 41.7875 130.29 41.8575C129.925 41.9225 129.632 42.0075 129.412 42.1125C129.192 42.2175 129.035 42.34 128.94 42.48C128.845 42.62 128.797 42.7725 128.797 42.9375C128.797 43.2625 128.892 43.495 129.082 43.635C129.277 43.775 129.53 43.845 129.84 43.845C130.22 43.845 130.547 43.7775 130.822 43.6425C131.102 43.5025 131.375 43.2925 131.64 43.0125V41.715ZM127.395 38.3775C128.28 37.5675 129.345 37.1625 130.59 37.1625C131.04 37.1625 131.442 37.2375 131.797 37.3875C132.152 37.5325 132.452 37.7375 132.697 38.0025C132.942 38.2625 133.127 38.575 133.252 38.94C133.382 39.305 133.447 39.705 133.447 40.14V45H132.607C132.432 45 132.297 44.975 132.202 44.925C132.107 44.87 132.032 44.7625 131.977 44.6025L131.812 44.0475C131.617 44.2225 131.427 44.3775 131.242 44.5125C131.057 44.6425 130.865 44.7525 130.665 44.8425C130.465 44.9325 130.25 45 130.02 45.045C129.795 45.095 129.545 45.12 129.27 45.12C128.945 45.12 128.645 45.0775 128.37 44.9925C128.095 44.9025 127.857 44.77 127.657 44.595C127.457 44.42 127.302 44.2025 127.192 43.9425C127.082 43.6825 127.027 43.38 127.027 43.035C127.027 42.84 127.06 42.6475 127.125 42.4575C127.19 42.2625 127.295 42.0775 127.44 41.9025C127.59 41.7275 127.782 41.5625 128.017 41.4075C128.252 41.2525 128.54 41.1175 128.88 41.0025C129.225 40.8875 129.625 40.795 130.08 40.725C130.535 40.65 131.055 40.605 131.64 40.59V40.14C131.64 39.625 131.53 39.245 131.31 39C131.09 38.75 130.772 38.625 130.357 38.625C130.057 38.625 129.807 38.66 129.607 38.73C129.412 38.8 129.24 38.88 129.09 38.97C128.94 39.055 128.802 39.1325 128.677 39.2025C128.557 39.2725 128.422 39.3075 128.272 39.3075C128.142 39.3075 128.032 39.275 127.942 39.21C127.852 39.14 127.78 39.06 127.725 38.97L127.395 38.3775ZM142.787 37.305L138.595 47.115C138.54 47.245 138.467 47.3425 138.377 47.4075C138.292 47.4775 138.16 47.5125 137.98 47.5125H136.6L138.04 44.4225L134.927 37.305H136.555C136.7 37.305 136.812 37.34 136.892 37.41C136.977 37.48 137.04 37.56 137.08 37.65L138.715 41.64C138.77 41.775 138.815 41.91 138.85 42.045C138.89 42.18 138.927 42.3175 138.962 42.4575C139.007 42.3175 139.052 42.18 139.097 42.045C139.142 41.905 139.192 41.7675 139.247 41.6325L140.792 37.65C140.832 37.55 140.897 37.4675 140.987 37.4025C141.082 37.3375 141.187 37.305 141.302 37.305H142.787ZM146.408 33.855V45H144.555V33.855H146.408ZM150.998 37.305V45H149.138V37.305H150.998ZM151.253 35.0625C151.253 35.2225 151.221 35.3725 151.156 35.5125C151.091 35.6525 151.003 35.775 150.893 35.88C150.788 35.985 150.663 36.07 150.518 36.135C150.373 36.195 150.218 36.225 150.053 36.225C149.893 36.225 149.741 36.195 149.596 36.135C149.456 36.07 149.333 35.985 149.228 35.88C149.123 35.775 149.038 35.6525 148.973 35.5125C148.913 35.3725 148.883 35.2225 148.883 35.0625C148.883 34.8975 148.913 34.7425 148.973 34.5975C149.038 34.4525 149.123 34.3275 149.228 34.2225C149.333 34.1175 149.456 34.035 149.596 33.975C149.741 33.91 149.893 33.8775 150.053 33.8775C150.218 33.8775 150.373 33.91 150.518 33.975C150.663 34.035 150.788 34.1175 150.893 34.2225C151.003 34.3275 151.091 34.4525 151.156 34.5975C151.221 34.7425 151.253 34.8975 151.253 35.0625ZM158.407 38.805C158.357 38.885 158.304 38.9425 158.249 38.9775C158.194 39.0075 158.124 39.0225 158.039 39.0225C157.949 39.0225 157.852 38.9975 157.747 38.9475C157.647 38.8975 157.529 38.8425 157.394 38.7825C157.259 38.7175 157.104 38.66 156.929 38.61C156.759 38.56 156.557 38.535 156.322 38.535C155.957 38.535 155.669 38.6125 155.459 38.7675C155.254 38.9225 155.152 39.125 155.152 39.375C155.152 39.54 155.204 39.68 155.309 39.795C155.419 39.905 155.562 40.0025 155.737 40.0875C155.917 40.1725 156.119 40.25 156.344 40.32C156.569 40.385 156.797 40.4575 157.027 40.5375C157.262 40.6175 157.492 40.71 157.717 40.815C157.942 40.915 158.142 41.045 158.317 41.205C158.497 41.36 158.639 41.5475 158.744 41.7675C158.854 41.9875 158.909 42.2525 158.909 42.5625C158.909 42.9325 158.842 43.275 158.707 43.59C158.577 43.9 158.382 44.17 158.122 44.4C157.862 44.625 157.539 44.8025 157.154 44.9325C156.774 45.0575 156.334 45.12 155.834 45.12C155.569 45.12 155.309 45.095 155.054 45.045C154.804 45 154.562 44.935 154.327 44.85C154.097 44.765 153.882 44.665 153.682 44.55C153.487 44.435 153.314 44.31 153.164 44.175L153.592 43.47C153.647 43.385 153.712 43.32 153.787 43.275C153.862 43.23 153.957 43.2075 154.072 43.2075C154.187 43.2075 154.294 43.24 154.394 43.305C154.499 43.37 154.619 43.44 154.754 43.515C154.889 43.59 155.047 43.66 155.227 43.725C155.412 43.79 155.644 43.8225 155.924 43.8225C156.144 43.8225 156.332 43.7975 156.487 43.7475C156.647 43.6925 156.777 43.6225 156.877 43.5375C156.982 43.4525 157.057 43.355 157.102 43.245C157.152 43.13 157.177 43.0125 157.177 42.8925C157.177 42.7125 157.122 42.565 157.012 42.45C156.907 42.335 156.764 42.235 156.584 42.15C156.409 42.065 156.207 41.99 155.977 41.925C155.752 41.855 155.519 41.78 155.279 41.7C155.044 41.62 154.812 41.5275 154.582 41.4225C154.357 41.3125 154.154 41.175 153.974 41.01C153.799 40.845 153.657 40.6425 153.547 40.4025C153.442 40.1625 153.389 39.8725 153.389 39.5325C153.389 39.2175 153.452 38.9175 153.577 38.6325C153.702 38.3475 153.884 38.1 154.124 37.89C154.369 37.675 154.672 37.505 155.032 37.38C155.397 37.25 155.817 37.185 156.292 37.185C156.822 37.185 157.304 37.2725 157.739 37.4475C158.174 37.6225 158.537 37.8525 158.827 38.1375L158.407 38.805ZM163.694 45.12C163.024 45.12 162.509 44.9325 162.149 44.5575C161.794 44.1775 161.616 43.655 161.616 42.99V38.6925H160.829C160.729 38.6925 160.644 38.66 160.574 38.595C160.504 38.53 160.469 38.4325 160.469 38.3025V37.5675L161.706 37.365L162.096 35.265C162.121 35.165 162.169 35.0875 162.239 35.0325C162.309 34.9775 162.399 34.95 162.509 34.95H163.469V37.3725H165.524V38.6925H163.469V42.8625C163.469 43.1025 163.526 43.29 163.641 43.425C163.761 43.56 163.924 43.6275 164.129 43.6275C164.244 43.6275 164.339 43.615 164.414 43.59C164.494 43.56 164.561 43.53 164.616 43.5C164.676 43.47 164.729 43.4425 164.774 43.4175C164.819 43.3875 164.864 43.3725 164.909 43.3725C164.964 43.3725 165.009 43.3875 165.044 43.4175C165.079 43.4425 165.116 43.4825 165.156 43.5375L165.711 44.4375C165.441 44.6625 165.131 44.8325 164.781 44.9475C164.431 45.0625 164.069 45.12 163.694 45.12Z" fill="white"/>
<defs>
<filter id="filter0_d_182_1283" x="0.5" y="0.5" width="225" height="80" filterUnits="userSpaceOnUse" color-interpolation-filters="sRGB">
<feFlood flood-opacity="0" result="BackgroundImageFix"/>
<feColorMatrix in="SourceAlpha" type="matrix" values="0 0 0 0 0 0 0 0 0 0 0 0 0 0 0 0 0 0 127 0" result="hardAlpha"/>
<feMorphology radius="0.5" operator="dilate" in="SourceAlpha" result="effect1_dropShadow_182_1283"/>
<feOffset/>
<feGaussianBlur stdDeviation="5"/>
<feComposite in2="hardAlpha" operator="out"/>
<feColorMatrix type="matrix" values="0 0 0 0 0.223529 0 0 0 0 0.752941 0 0 0 0 0.831373 0 0 0 1 0"/>
<feBlend mode="normal" in2="BackgroundImageFix" result="effect1_dropShadow_182_1283"/>
<feBlend mode="normal" in="SourceGraphic" in2="effect1_dropShadow_182_1283" result="shape"/>
</filter>
</defs>
</svg>
