<svg width="34" height="34" viewBox="0 0 34 34" fill="none" xmlns="http://www.w3.org/2000/svg">
<path d="M11.3137 9.89944L16.9706 15.5563L22.6274 9.89944C22.8149 9.7119 23.0693 9.60654 23.3345 9.60654C23.5997 9.60654 23.8541 9.7119 24.0416 9.89944C24.2292 10.087 24.3345 10.3413 24.3345 10.6065C24.3345 10.8718 24.2292 11.1261 24.0416 11.3137L18.3848 16.9705L24.0416 22.6274C24.2292 22.8149 24.3345 23.0692 24.3345 23.3345C24.3345 23.5997 24.2292 23.854 24.0416 24.0416C23.8541 24.2291 23.5997 24.3345 23.3345 24.3345C23.0693 24.3345 22.8149 24.2291 22.6274 24.0416L16.9706 18.3847L11.3137 24.0416C11.1262 24.2291 10.8718 24.3345 10.6066 24.3345C10.3414 24.3345 10.087 24.2291 9.89948 24.0416C9.71195 23.854 9.60659 23.5997 9.60659 23.3345C9.60659 23.0692 9.71195 22.8149 9.89948 22.6274L15.5563 16.9705L9.89948 11.3137C9.71195 11.1261 9.60659 10.8718 9.60659 10.6065C9.60659 10.3413 9.71195 10.087 9.89948 9.89944C10.087 9.7119 10.3414 9.60654 10.6066 9.60654C10.8718 9.60654 11.1262 9.7119 11.3137 9.89944V9.89944Z" fill="white"/>
</svg>
